<svg width="237" height="41" viewBox="0 0 237 41" fill="none" xmlns="http://www.w3.org/2000/svg">
<path d="M19.12 30.28C17.1787 30.28 15.5734 30.0093 14.304 29.468C13.0534 28.9267 12.1574 28.2173 11.616 27.34C11.0747 26.444 10.888 25.492 11.056 24.484C11.0934 24.316 11.1774 24.176 11.308 24.064C11.4387 23.952 11.588 23.896 11.756 23.896H16.208C16.488 23.896 16.6934 23.9427 16.824 24.036C16.9547 24.1107 17.0854 24.2227 17.216 24.372C17.328 24.5773 17.4774 24.7733 17.664 24.96C17.8694 25.128 18.1307 25.268 18.448 25.38C18.784 25.4733 19.176 25.52 19.624 25.52C20.4827 25.52 21.1733 25.408 21.696 25.184C22.2373 24.9413 22.5547 24.6147 22.648 24.204C22.7227 23.8867 22.648 23.6253 22.424 23.42C22.2187 23.2147 21.8267 23.028 21.248 22.86C20.688 22.692 19.9227 22.5147 18.952 22.328C17.552 22.0853 16.3854 21.6933 15.452 21.152C14.5374 20.6107 13.8934 19.9107 13.52 19.052C13.1467 18.1747 13.0907 17.1387 13.352 15.944C13.7254 14.1333 14.6867 12.7147 16.236 11.688C17.7854 10.6427 19.792 10.12 22.256 10.12C23.488 10.12 24.5987 10.2973 25.588 10.652C26.5773 11.0067 27.408 11.4733 28.08 12.052C28.7707 12.612 29.2747 13.2187 29.592 13.872C29.928 14.5253 30.04 15.1507 29.928 15.748C29.9093 15.916 29.8253 16.0653 29.676 16.196C29.5453 16.308 29.4053 16.364 29.256 16.364H24.58C24.3373 16.364 24.1413 16.3267 23.992 16.252C23.8613 16.1773 23.74 16.056 23.628 15.888C23.5907 15.6267 23.404 15.3933 23.068 15.188C22.7507 14.9827 22.3213 14.88 21.78 14.88C21.1453 14.88 20.6227 14.992 20.212 15.216C19.82 15.4213 19.5774 15.7293 19.484 16.14C19.428 16.42 19.484 16.6627 19.652 16.868C19.82 17.0733 20.1467 17.26 20.632 17.428C21.1173 17.5773 21.808 17.7453 22.704 17.932C24.44 18.1933 25.7933 18.5947 26.764 19.136C27.7533 19.6773 28.4067 20.3773 28.724 21.236C29.06 22.076 29.1067 23.084 28.864 24.26C28.4347 26.2387 27.3987 27.7413 25.756 28.768C24.132 29.776 21.92 30.28 19.12 30.28ZM30.7593 30C30.5539 30 30.3859 29.9347 30.2553 29.804C30.1433 29.6547 30.1059 29.4773 30.1433 29.272L34.0073 11.128C34.0446 10.9227 34.1473 10.7547 34.3153 10.624C34.5019 10.4747 34.6979 10.4 34.9033 10.4H42.5753C43.7326 10.4 44.7966 10.54 45.7673 10.82C46.7379 11.0813 47.5593 11.492 48.2313 12.052C48.9033 12.612 49.3699 13.312 49.6313 14.152C49.9113 14.9733 49.9393 15.944 49.7153 17.064C49.2299 19.304 48.2499 20.9467 46.7753 21.992C45.3193 23.0187 43.3126 23.532 40.7553 23.532H37.6193L36.3873 29.272C36.3499 29.4773 36.2473 29.6547 36.0793 29.804C35.9113 29.9347 35.7246 30 35.5193 30H30.7593ZM38.4593 19.024H41.0633C41.5859 19.024 42.0806 18.8653 42.5473 18.548C43.0139 18.212 43.3219 17.6987 43.4713 17.008C43.5646 16.6533 43.5833 16.3173 43.5273 16C43.4899 15.6827 43.3499 15.4307 43.1073 15.244C42.8833 15.0387 42.5099 14.936 41.9873 14.936H39.3553L38.4593 19.024ZM58.2386 30.28C57.0253 30.28 55.896 30.1213 54.8506 29.804C53.8053 29.4867 52.9093 29.0107 52.1626 28.376C51.416 27.7413 50.8746 26.9573 50.5386 26.024C50.2213 25.072 50.1746 23.9613 50.3986 22.692C50.5293 21.908 50.6786 21.1053 50.8466 20.284C51.0333 19.444 51.22 18.6133 51.4066 17.792C52.0226 15.328 53.1426 13.4333 54.7666 12.108C56.4093 10.7827 58.668 10.12 61.5426 10.12C62.756 10.12 63.8853 10.288 64.9306 10.624C65.976 10.96 66.8626 11.4547 67.5906 12.108C68.3373 12.7427 68.8786 13.5453 69.2146 14.516C69.5506 15.468 69.6066 16.56 69.3826 17.792C69.252 18.6133 69.0933 19.444 68.9066 20.284C68.7386 21.1053 68.552 21.908 68.3466 22.692C67.712 25.212 66.5826 27.1067 64.9586 28.376C63.3346 29.6453 61.0946 30.28 58.2386 30.28ZM58.7426 25.52C59.5453 25.52 60.2453 25.2867 60.8426 24.82C61.4586 24.3347 61.888 23.5693 62.1306 22.524C62.336 21.7213 62.5226 20.9467 62.6906 20.2C62.8586 19.4347 63.008 18.66 63.1386 17.876C63.3253 16.8307 63.2226 16.0747 62.8306 15.608C62.4573 15.1227 61.8693 14.88 61.0666 14.88C60.264 14.88 59.564 15.1227 58.9666 15.608C58.3693 16.0747 57.9306 16.8307 57.6506 17.876C57.464 18.66 57.2866 19.4347 57.1186 20.2C56.9693 20.9467 56.82 21.7213 56.6706 22.524C56.484 23.5693 56.5773 24.3347 56.9506 24.82C57.324 25.2867 57.9213 25.52 58.7426 25.52ZM70.8264 30C70.6397 30 70.4904 29.9347 70.3784 29.804C70.2664 29.6547 70.229 29.4773 70.2664 29.272L74.1024 11.128C74.1397 10.9227 74.2517 10.7547 74.4384 10.624C74.625 10.4747 74.8117 10.4 74.9984 10.4H82.9784C85.517 10.4 87.3837 10.9787 88.5784 12.136C89.7917 13.2933 90.1744 14.908 89.7264 16.98C89.4464 18.2867 88.905 19.3973 88.1024 20.312C87.3184 21.2267 86.3944 21.9453 85.3304 22.468L87.5424 29.076C87.561 29.132 87.5704 29.188 87.5704 29.244C87.589 29.2813 87.589 29.328 87.5704 29.384C87.533 29.552 87.4397 29.7013 87.2904 29.832C87.1597 29.944 87.0104 30 86.8424 30H82.1104C81.7557 30 81.5037 29.916 81.3544 29.748C81.2237 29.5613 81.1397 29.3933 81.1024 29.244L79.5344 23.476H77.5184L76.2864 29.272C76.249 29.4773 76.137 29.6547 75.9504 29.804C75.7824 29.9347 75.5957 30 75.3904 30H70.8264ZM78.4984 18.856H81.1584C81.8117 18.856 82.3344 18.6787 82.7264 18.324C83.137 17.9507 83.3984 17.4933 83.5104 16.952C83.6224 16.392 83.557 15.916 83.3144 15.524C83.0904 15.132 82.6424 14.936 81.9704 14.936H79.3104L78.4984 18.856ZM94.5433 30C94.3566 30 94.1979 29.9347 94.0673 29.804C93.9553 29.6547 93.9179 29.4773 93.9553 29.272L96.8953 15.608H92.0793C91.8739 15.608 91.7059 15.5427 91.5753 15.412C91.4633 15.2627 91.4259 15.0853 91.4633 14.88L92.2753 11.128C92.3126 10.9227 92.4153 10.7547 92.5833 10.624C92.7699 10.4747 92.9566 10.4 93.1433 10.4H108.879C109.085 10.4 109.243 10.4747 109.355 10.624C109.486 10.7547 109.533 10.9227 109.495 11.128L108.683 14.88C108.646 15.0853 108.543 15.2627 108.375 15.412C108.207 15.5427 108.021 15.608 107.815 15.608H102.999L100.059 29.272C100.022 29.4773 99.9193 29.6547 99.7513 29.804C99.5833 29.9347 99.3966 30 99.1913 30H94.5433ZM116.59 30.28C114.742 30.28 113.212 30 111.998 29.44C110.804 28.8613 109.954 28.0027 109.45 26.864C108.946 25.7253 108.844 24.316 109.142 22.636C109.273 21.852 109.432 21.012 109.618 20.116C109.824 19.2013 110.029 18.3427 110.234 17.54C110.626 15.916 111.317 14.5533 112.306 13.452C113.314 12.3507 114.546 11.52 116.002 10.96C117.458 10.4 119.082 10.12 120.874 10.12C122.312 10.12 123.553 10.288 124.598 10.624C125.662 10.96 126.521 11.4173 127.174 11.996C127.846 12.5747 128.313 13.228 128.574 13.956C128.836 14.6653 128.901 15.4027 128.77 16.168C128.733 16.336 128.64 16.4853 128.49 16.616C128.36 16.728 128.21 16.784 128.042 16.784H122.89C122.685 16.784 122.526 16.756 122.414 16.7C122.321 16.6253 122.246 16.532 122.19 16.42C122.153 16.2333 122.06 16.0187 121.91 15.776C121.761 15.5333 121.528 15.328 121.21 15.16C120.893 14.9733 120.445 14.88 119.866 14.88C118.989 14.88 118.252 15.104 117.654 15.552C117.076 16 116.674 16.7093 116.45 17.68C116.264 18.464 116.077 19.2573 115.89 20.06C115.722 20.8627 115.564 21.6747 115.414 22.496C115.228 23.56 115.34 24.3347 115.75 24.82C116.18 25.2867 116.824 25.52 117.682 25.52C118.28 25.52 118.821 25.4267 119.306 25.24C119.792 25.0533 120.212 24.764 120.566 24.372C120.921 23.9613 121.164 23.4387 121.294 22.804L121.35 22.524H119.362C119.157 22.524 118.998 22.4493 118.886 22.3C118.793 22.1507 118.765 21.9827 118.802 21.796L119.334 19.192C119.372 18.9867 119.474 18.8187 119.642 18.688C119.829 18.5387 120.025 18.464 120.23 18.464H127.594C127.8 18.464 127.958 18.5387 128.07 18.688C128.182 18.8187 128.22 18.9867 128.182 19.192L127.454 22.608C127.118 24.2507 126.437 25.6413 125.41 26.78C124.384 27.9187 123.114 28.7867 121.602 29.384C120.09 29.9813 118.42 30.28 116.59 30.28ZM127.351 30C127.146 30 126.997 29.916 126.903 29.748C126.81 29.5613 126.819 29.3747 126.931 29.188L137.123 11.268C137.235 11.0627 137.403 10.8667 137.627 10.68C137.851 10.4933 138.141 10.4 138.495 10.4H143.759C144.114 10.4 144.366 10.4933 144.515 10.68C144.665 10.8667 144.749 11.0627 144.767 11.268L147.371 29.188C147.409 29.4307 147.343 29.6267 147.175 29.776C147.026 29.9253 146.849 30 146.643 30H142.443C142.126 30 141.902 29.9253 141.771 29.776C141.659 29.6267 141.585 29.4773 141.547 29.328L141.155 27.004H134.435L133.035 29.356C132.961 29.5053 132.83 29.6547 132.643 29.804C132.475 29.9347 132.233 30 131.915 30H127.351ZM136.703 22.272H140.875L140.147 15.972L136.703 22.272ZM154.125 30C153.939 30 153.78 29.9347 153.649 29.804C153.537 29.6547 153.5 29.4773 153.537 29.272L156.477 15.608H151.661C151.456 15.608 151.288 15.5427 151.157 15.412C151.045 15.2627 151.008 15.0853 151.045 14.88L151.857 11.128C151.895 10.9227 151.997 10.7547 152.165 10.624C152.352 10.4747 152.539 10.4 152.725 10.4H168.461C168.667 10.4 168.825 10.4747 168.937 10.624C169.068 10.7547 169.115 10.9227 169.077 11.128L168.265 14.88C168.228 15.0853 168.125 15.2627 167.957 15.412C167.789 15.5427 167.603 15.608 167.397 15.608H162.581L159.641 29.272C159.604 29.4773 159.501 29.6547 159.333 29.804C159.165 29.9347 158.979 30 158.773 30H154.125ZM168.052 30C167.847 30 167.679 29.9347 167.548 29.804C167.436 29.6733 167.399 29.496 167.436 29.272L171.3 11.128C171.338 10.9227 171.44 10.7547 171.608 10.624C171.795 10.4747 171.991 10.4 172.196 10.4H176.732C176.938 10.4 177.096 10.4747 177.208 10.624C177.32 10.7547 177.358 10.9227 177.32 11.128L175.976 17.456H181.688L183.032 11.128C183.07 10.9227 183.172 10.7547 183.34 10.624C183.527 10.4747 183.714 10.4 183.9 10.4H188.464C188.67 10.4 188.828 10.4747 188.94 10.624C189.052 10.7547 189.09 10.9227 189.052 11.128L185.188 29.272C185.151 29.4773 185.048 29.6547 184.88 29.804C184.712 29.9347 184.526 30 184.32 30H179.756C179.57 30 179.411 29.9347 179.28 29.804C179.168 29.6547 179.131 29.4773 179.168 29.272L180.568 22.776H174.856L173.456 29.272C173.419 29.4773 173.316 29.6547 173.148 29.804C172.98 29.9347 172.794 30 172.588 30H168.052ZM189.271 30C189.066 30 188.898 29.9347 188.767 29.804C188.655 29.6547 188.618 29.4773 188.655 29.272L192.519 11.128C192.556 10.9227 192.659 10.7547 192.827 10.624C193.014 10.4747 193.21 10.4 193.415 10.4H207.135C207.34 10.4 207.499 10.4747 207.611 10.624C207.723 10.7547 207.76 10.9227 207.723 11.128L207.023 14.432C206.986 14.6187 206.874 14.7867 206.687 14.936C206.519 15.0853 206.332 15.16 206.127 15.16H197.475L196.859 17.932H204.895C205.1 17.932 205.259 18.0067 205.371 18.156C205.502 18.2867 205.548 18.4547 205.511 18.66L204.839 21.684C204.802 21.8893 204.69 22.0667 204.503 22.216C204.335 22.3467 204.148 22.412 203.943 22.412H195.907L195.319 25.24H204.195C204.4 25.24 204.559 25.3147 204.671 25.464C204.783 25.6133 204.82 25.7907 204.783 25.996L204.083 29.272C204.046 29.4773 203.943 29.6547 203.775 29.804C203.607 29.9347 203.42 30 203.215 30H189.271ZM207.901 30C207.714 30 207.565 29.9347 207.453 29.804C207.341 29.6547 207.303 29.4773 207.341 29.272L211.177 11.128C211.214 10.9227 211.326 10.7547 211.513 10.624C211.699 10.4747 211.886 10.4 212.073 10.4H220.053C222.591 10.4 224.458 10.9787 225.653 12.136C226.866 13.2933 227.249 14.908 226.801 16.98C226.521 18.2867 225.979 19.3973 225.177 20.312C224.393 21.2267 223.469 21.9453 222.405 22.468L224.617 29.076C224.635 29.132 224.645 29.188 224.645 29.244C224.663 29.2813 224.663 29.328 224.645 29.384C224.607 29.552 224.514 29.7013 224.365 29.832C224.234 29.944 224.085 30 223.917 30H219.185C218.83 30 218.578 29.916 218.429 29.748C218.298 29.5613 218.214 29.3933 218.177 29.244L216.609 23.476H214.593L213.361 29.272C213.323 29.4773 213.211 29.6547 213.025 29.804C212.857 29.9347 212.67 30 212.465 30H207.901ZM215.573 18.856H218.233C218.886 18.856 219.409 18.6787 219.801 18.324C220.211 17.9507 220.473 17.4933 220.585 16.952C220.697 16.392 220.631 15.916 220.389 15.524C220.165 15.132 219.717 14.936 219.045 14.936H216.385L215.573 18.856Z" fill="#0D0D0D"/>
</svg>
