<svg width="218" height="21" viewBox="0 0 218 21" fill="none" xmlns="http://www.w3.org/2000/svg">
<path d="M9.12002 20.28C7.17869 20.28 5.57335 20.0093 4.30402 19.468C3.05335 18.9267 2.15735 18.2173 1.61602 17.34C1.07469 16.444 0.888022 15.492 1.05602 14.484C1.09335 14.316 1.17735 14.176 1.30802 14.064C1.43869 13.952 1.58802 13.896 1.75602 13.896H6.20802C6.48802 13.896 6.69335 13.9427 6.82402 14.036C6.95469 14.1107 7.08535 14.2227 7.21602 14.372C7.32802 14.5773 7.47735 14.7733 7.66402 14.96C7.86935 15.128 8.13069 15.268 8.44802 15.38C8.78402 15.4733 9.17602 15.52 9.62402 15.52C10.4827 15.52 11.1733 15.408 11.696 15.184C12.2373 14.9413 12.5547 14.6147 12.648 14.204C12.7227 13.8867 12.648 13.6253 12.424 13.42C12.2187 13.2147 11.8267 13.028 11.248 12.86C10.688 12.692 9.92269 12.5147 8.95202 12.328C7.55202 12.0853 6.38535 11.6933 5.45202 11.152C4.53735 10.6107 3.89335 9.91067 3.52002 9.052C3.14669 8.17467 3.09069 7.13867 3.35202 5.944C3.72535 4.13333 4.68669 2.71467 6.23602 1.688C7.78535 0.642662 9.79202 0.119995 12.256 0.119995C13.488 0.119995 14.5987 0.297328 15.588 0.651995C16.5773 1.00667 17.408 1.47333 18.08 2.052C18.7707 2.612 19.2747 3.21867 19.592 3.872C19.928 4.52533 20.04 5.15067 19.928 5.748C19.9093 5.916 19.8253 6.06533 19.676 6.196C19.5453 6.308 19.4053 6.364 19.256 6.364H14.58C14.3373 6.364 14.1413 6.32667 13.992 6.252C13.8613 6.17733 13.74 6.056 13.628 5.888C13.5907 5.62667 13.404 5.39333 13.068 5.188C12.7507 4.98267 12.3213 4.88 11.78 4.88C11.1453 4.88 10.6227 4.992 10.212 5.216C9.82002 5.42133 9.57735 5.72933 9.48402 6.14C9.42802 6.42 9.48402 6.66267 9.65202 6.868C9.82002 7.07333 10.1467 7.26 10.632 7.428C11.1173 7.57733 11.808 7.74533 12.704 7.932C14.44 8.19333 15.7933 8.59467 16.764 9.136C17.7533 9.67733 18.4067 10.3773 18.724 11.236C19.06 12.076 19.1067 13.084 18.864 14.26C18.4347 16.2387 17.3987 17.7413 15.756 18.768C14.132 19.776 11.92 20.28 9.12002 20.28ZM20.7593 20C20.5539 20 20.3859 19.9347 20.2553 19.804C20.1433 19.6547 20.1059 19.4773 20.1433 19.272L24.0073 1.128C24.0446 0.922661 24.1473 0.754661 24.3153 0.623995C24.5019 0.474661 24.6979 0.399995 24.9033 0.399995H32.5753C33.7326 0.399995 34.7966 0.539995 35.7673 0.819994C36.7379 1.08133 37.5593 1.492 38.2313 2.052C38.9033 2.612 39.3699 3.312 39.6313 4.152C39.9113 4.97333 39.9393 5.944 39.7153 7.064C39.2299 9.304 38.2499 10.9467 36.7753 11.992C35.3193 13.0187 33.3126 13.532 30.7553 13.532H27.6193L26.3873 19.272C26.3499 19.4773 26.2473 19.6547 26.0793 19.804C25.9113 19.9347 25.7246 20 25.5193 20H20.7593ZM28.4593 9.024H31.0633C31.5859 9.024 32.0806 8.86533 32.5473 8.548C33.0139 8.212 33.3219 7.69867 33.4713 7.008C33.5646 6.65333 33.5833 6.31733 33.5273 6C33.4899 5.68267 33.3499 5.43067 33.1073 5.244C32.8833 5.03867 32.5099 4.936 31.9873 4.936H29.3553L28.4593 9.024ZM48.2386 20.28C47.0253 20.28 45.896 20.1213 44.8506 19.804C43.8053 19.4867 42.9093 19.0107 42.1626 18.376C41.416 17.7413 40.8746 16.9573 40.5386 16.024C40.2213 15.072 40.1746 13.9613 40.3986 12.692C40.5293 11.908 40.6786 11.1053 40.8466 10.284C41.0333 9.444 41.22 8.61333 41.4066 7.792C42.0226 5.328 43.1426 3.43333 44.7666 2.108C46.4093 0.782661 48.668 0.119995 51.5426 0.119995C52.756 0.119995 53.8853 0.287995 54.9306 0.623995C55.976 0.959995 56.8626 1.45467 57.5906 2.108C58.3373 2.74267 58.8786 3.54533 59.2146 4.516C59.5506 5.468 59.6066 6.56 59.3826 7.792C59.252 8.61333 59.0933 9.444 58.9066 10.284C58.7386 11.1053 58.552 11.908 58.3466 12.692C57.712 15.212 56.5826 17.1067 54.9586 18.376C53.3346 19.6453 51.0946 20.28 48.2386 20.28ZM48.7426 15.52C49.5453 15.52 50.2453 15.2867 50.8426 14.82C51.4586 14.3347 51.888 13.5693 52.1306 12.524C52.336 11.7213 52.5226 10.9467 52.6906 10.2C52.8586 9.43467 53.008 8.66 53.1386 7.876C53.3253 6.83067 53.2226 6.07467 52.8306 5.608C52.4573 5.12267 51.8693 4.88 51.0666 4.88C50.264 4.88 49.564 5.12267 48.9666 5.608C48.3693 6.07467 47.9306 6.83067 47.6506 7.876C47.464 8.66 47.2866 9.43467 47.1186 10.2C46.9693 10.9467 46.82 11.7213 46.6706 12.524C46.484 13.5693 46.5773 14.3347 46.9506 14.82C47.324 15.2867 47.9213 15.52 48.7426 15.52ZM60.8264 20C60.6397 20 60.4904 19.9347 60.3784 19.804C60.2664 19.6547 60.229 19.4773 60.2664 19.272L64.1024 1.128C64.1397 0.922661 64.2517 0.754661 64.4384 0.623995C64.625 0.474661 64.8117 0.399995 64.9984 0.399995H72.9784C75.517 0.399995 77.3837 0.978662 78.5784 2.136C79.7917 3.29333 80.1744 4.908 79.7264 6.98C79.4464 8.28667 78.905 9.39733 78.1024 10.312C77.3184 11.2267 76.3944 11.9453 75.3304 12.468L77.5424 19.076C77.561 19.132 77.5704 19.188 77.5704 19.244C77.589 19.2813 77.589 19.328 77.5704 19.384C77.533 19.552 77.4397 19.7013 77.2904 19.832C77.1597 19.944 77.0104 20 76.8424 20H72.1104C71.7557 20 71.5037 19.916 71.3544 19.748C71.2237 19.5613 71.1397 19.3933 71.1024 19.244L69.5344 13.476H67.5184L66.2864 19.272C66.249 19.4773 66.137 19.6547 65.9504 19.804C65.7824 19.9347 65.5957 20 65.3904 20H60.8264ZM68.4984 8.856H71.1584C71.8117 8.856 72.3344 8.67867 72.7264 8.324C73.137 7.95067 73.3984 7.49333 73.5104 6.952C73.6224 6.392 73.557 5.916 73.3144 5.524C73.0904 5.132 72.6424 4.936 71.9704 4.936H69.3104L68.4984 8.856ZM84.5433 20C84.3566 20 84.1979 19.9347 84.0673 19.804C83.9553 19.6547 83.9179 19.4773 83.9553 19.272L86.8953 5.608H82.0793C81.8739 5.608 81.7059 5.54267 81.5753 5.412C81.4633 5.26267 81.4259 5.08533 81.4633 4.88L82.2753 1.128C82.3126 0.922661 82.4153 0.754661 82.5833 0.623995C82.7699 0.474661 82.9566 0.399995 83.1433 0.399995H98.8793C99.0846 0.399995 99.2433 0.474661 99.3553 0.623995C99.4859 0.754661 99.5326 0.922661 99.4953 1.128L98.6833 4.88C98.6459 5.08533 98.5433 5.26267 98.3753 5.412C98.2073 5.54267 98.0206 5.608 97.8153 5.608H92.9993L90.0593 19.272C90.0219 19.4773 89.9193 19.6547 89.7513 19.804C89.5833 19.9347 89.3966 20 89.1913 20H84.5433ZM106.59 20.28C104.742 20.28 103.212 20 101.998 19.44C100.804 18.8613 99.9542 18.0027 99.4502 16.864C98.9462 15.7253 98.8435 14.316 99.1422 12.636C99.2729 11.852 99.4315 11.012 99.6182 10.116C99.8235 9.20133 100.029 8.34267 100.234 7.54C100.626 5.916 101.317 4.55333 102.306 3.452C103.314 2.35067 104.546 1.52 106.002 0.959996C107.458 0.399995 109.082 0.119995 110.874 0.119995C112.312 0.119995 113.553 0.287995 114.598 0.623995C115.662 0.959995 116.521 1.41733 117.174 1.996C117.846 2.57467 118.313 3.228 118.574 3.956C118.836 4.66533 118.901 5.40267 118.77 6.168C118.733 6.336 118.64 6.48533 118.49 6.616C118.36 6.728 118.21 6.784 118.042 6.784H112.89C112.685 6.784 112.526 6.756 112.414 6.7C112.321 6.62533 112.246 6.532 112.19 6.42C112.153 6.23333 112.06 6.01867 111.91 5.776C111.761 5.53333 111.528 5.328 111.21 5.16C110.893 4.97333 110.445 4.88 109.866 4.88C108.989 4.88 108.252 5.104 107.654 5.552C107.076 6 106.674 6.70933 106.45 7.68C106.264 8.464 106.077 9.25733 105.89 10.06C105.722 10.8627 105.564 11.6747 105.414 12.496C105.228 13.56 105.34 14.3347 105.75 14.82C106.18 15.2867 106.824 15.52 107.682 15.52C108.28 15.52 108.821 15.4267 109.306 15.24C109.792 15.0533 110.212 14.764 110.566 14.372C110.921 13.9613 111.164 13.4387 111.294 12.804L111.35 12.524H109.362C109.157 12.524 108.998 12.4493 108.886 12.3C108.793 12.1507 108.765 11.9827 108.802 11.796L109.334 9.192C109.372 8.98667 109.474 8.81867 109.642 8.688C109.829 8.53867 110.025 8.464 110.23 8.464H117.594C117.8 8.464 117.958 8.53867 118.07 8.688C118.182 8.81867 118.22 8.98667 118.182 9.192L117.454 12.608C117.118 14.2507 116.437 15.6413 115.41 16.78C114.384 17.9187 113.114 18.7867 111.602 19.384C110.09 19.9813 108.42 20.28 106.59 20.28ZM117.351 20C117.146 20 116.997 19.916 116.903 19.748C116.81 19.5613 116.819 19.3747 116.931 19.188L127.123 1.268C127.235 1.06267 127.403 0.866662 127.627 0.679994C127.851 0.493328 128.141 0.399995 128.495 0.399995H133.759C134.114 0.399995 134.366 0.493328 134.515 0.679994C134.665 0.866662 134.749 1.06267 134.767 1.268L137.371 19.188C137.409 19.4307 137.343 19.6267 137.175 19.776C137.026 19.9253 136.849 20 136.643 20H132.443C132.126 20 131.902 19.9253 131.771 19.776C131.659 19.6267 131.585 19.4773 131.547 19.328L131.155 17.004H124.435L123.035 19.356C122.961 19.5053 122.83 19.6547 122.643 19.804C122.475 19.9347 122.233 20 121.915 20H117.351ZM126.703 12.272H130.875L130.147 5.972L126.703 12.272ZM144.125 20C143.939 20 143.78 19.9347 143.649 19.804C143.537 19.6547 143.5 19.4773 143.537 19.272L146.477 5.608H141.661C141.456 5.608 141.288 5.54267 141.157 5.412C141.045 5.26267 141.008 5.08533 141.045 4.88L141.857 1.128C141.895 0.922661 141.997 0.754661 142.165 0.623995C142.352 0.474661 142.539 0.399995 142.725 0.399995H158.461C158.667 0.399995 158.825 0.474661 158.937 0.623995C159.068 0.754661 159.115 0.922661 159.077 1.128L158.265 4.88C158.228 5.08533 158.125 5.26267 157.957 5.412C157.789 5.54267 157.603 5.608 157.397 5.608H152.581L149.641 19.272C149.604 19.4773 149.501 19.6547 149.333 19.804C149.165 19.9347 148.979 20 148.773 20H144.125ZM158.052 20C157.847 20 157.679 19.9347 157.548 19.804C157.436 19.6733 157.399 19.496 157.436 19.272L161.3 1.128C161.338 0.922661 161.44 0.754661 161.608 0.623995C161.795 0.474661 161.991 0.399995 162.196 0.399995H166.732C166.938 0.399995 167.096 0.474661 167.208 0.623995C167.32 0.754661 167.358 0.922661 167.32 1.128L165.976 7.456H171.688L173.032 1.128C173.07 0.922661 173.172 0.754661 173.34 0.623995C173.527 0.474661 173.714 0.399995 173.9 0.399995H178.464C178.67 0.399995 178.828 0.474661 178.94 0.623995C179.052 0.754661 179.09 0.922661 179.052 1.128L175.188 19.272C175.151 19.4773 175.048 19.6547 174.88 19.804C174.712 19.9347 174.526 20 174.32 20H169.756C169.57 20 169.411 19.9347 169.28 19.804C169.168 19.6547 169.131 19.4773 169.168 19.272L170.568 12.776H164.856L163.456 19.272C163.419 19.4773 163.316 19.6547 163.148 19.804C162.98 19.9347 162.794 20 162.588 20H158.052ZM179.271 20C179.066 20 178.898 19.9347 178.767 19.804C178.655 19.6547 178.618 19.4773 178.655 19.272L182.519 1.128C182.556 0.922661 182.659 0.754661 182.827 0.623995C183.014 0.474661 183.21 0.399995 183.415 0.399995H197.135C197.34 0.399995 197.499 0.474661 197.611 0.623995C197.723 0.754661 197.76 0.922661 197.723 1.128L197.023 4.432C196.986 4.61867 196.874 4.78667 196.687 4.936C196.519 5.08533 196.332 5.16 196.127 5.16H187.475L186.859 7.932H194.895C195.1 7.932 195.259 8.00667 195.371 8.156C195.502 8.28667 195.548 8.45467 195.511 8.66L194.839 11.684C194.802 11.8893 194.69 12.0667 194.503 12.216C194.335 12.3467 194.148 12.412 193.943 12.412H185.907L185.319 15.24H194.195C194.4 15.24 194.559 15.3147 194.671 15.464C194.783 15.6133 194.82 15.7907 194.783 15.996L194.083 19.272C194.046 19.4773 193.943 19.6547 193.775 19.804C193.607 19.9347 193.42 20 193.215 20H179.271ZM197.901 20C197.714 20 197.565 19.9347 197.453 19.804C197.341 19.6547 197.303 19.4773 197.341 19.272L201.177 1.128C201.214 0.922661 201.326 0.754661 201.513 0.623995C201.699 0.474661 201.886 0.399995 202.073 0.399995H210.053C212.591 0.399995 214.458 0.978662 215.653 2.136C216.866 3.29333 217.249 4.908 216.801 6.98C216.521 8.28667 215.979 9.39733 215.177 10.312C214.393 11.2267 213.469 11.9453 212.405 12.468L214.617 19.076C214.635 19.132 214.645 19.188 214.645 19.244C214.663 19.2813 214.663 19.328 214.645 19.384C214.607 19.552 214.514 19.7013 214.365 19.832C214.234 19.944 214.085 20 213.917 20H209.185C208.83 20 208.578 19.916 208.429 19.748C208.298 19.5613 208.214 19.3933 208.177 19.244L206.609 13.476H204.593L203.361 19.272C203.323 19.4773 203.211 19.6547 203.025 19.804C202.857 19.9347 202.67 20 202.465 20H197.901ZM205.573 8.856H208.233C208.886 8.856 209.409 8.67867 209.801 8.324C210.211 7.95067 210.473 7.49333 210.585 6.952C210.697 6.392 210.631 5.916 210.389 5.524C210.165 5.132 209.717 4.936 209.045 4.936H206.385L205.573 8.856Z" fill="white"/>
</svg>
